<?xml version="1.0" encoding="UTF-8"?>
<svg version="1.1" xmlns="http://www.w3.org/2000/svg" width="512" height="512">
<path d="M0 0 C5.45464641 3.88529284 10.42731486 8.1315509 15.3671875 12.6484375 C17.99666032 14.99701708 20.69311033 17.22478696 23.4375 19.4375 C28.21284402 23.29941675 32.73667685 27.37674224 37.25390625 31.53515625 C39.91875166 33.92707297 42.64831825 36.19254884 45.4375 38.4375 C49.97236161 42.09506264 54.25536183 45.94617027 58.51708984 49.91162109 C62.62779276 53.71398807 66.92275584 57.24270592 71.28515625 60.75390625 C75.06567286 63.88167179 78.64480875 67.21273883 82.25390625 70.53515625 C84.91875166 72.92707297 87.64831825 75.19254884 90.4375 77.4375 C94.97236161 81.09506264 99.25536183 84.94617027 103.51708984 88.91162109 C107.62165622 92.70831182 111.90980909 96.23222711 116.265625 99.73828125 C120.09770253 102.90795681 123.74608969 106.2626428 127.39453125 109.640625 C129.94638823 112.1060443 129.94638823 112.1060443 133.12026978 113.86613464 C135.30543599 115.70457371 135.93652425 116.70452722 136.54327011 119.52886391 C136.74111256 122.86703877 136.74137865 126.15756401 136.68115234 129.5012207 C136.6820285 130.76991501 136.68290466 132.03860931 136.68380737 133.3457489 C136.68552649 136.81692909 136.65029335 140.2868612 136.60836363 143.7577517 C136.57081385 147.38784952 136.56732798 151.01797708 136.56021118 154.64823914 C136.54157457 161.51904577 136.49235443 168.38927847 136.43211424 175.25983256 C136.35246059 184.54646188 136.32011288 193.83324854 136.28510094 203.1201334 C136.22871036 217.74718536 136.10917161 232.37302628 136 247 C104.65 247 73.3 247 41 247 C40.6875 201.875 40.6875 201.875 40.61206055 187.64404297 C40.57548191 183.42223811 40.57548191 183.42223811 40.5349884 179.20046997 C40.51887378 177.32493901 40.50856182 175.44935258 40.50288391 173.57376099 C40.49312687 170.72709649 40.46476825 167.88115307 40.43237305 165.03466797 C40.43379901 164.20373564 40.43522497 163.37280331 40.43669415 162.51669121 C40.35722231 157.61766411 39.69117497 154.25125636 37 150 C32.65561197 146.07945471 30.23571909 144.8785121 24.45214844 144.82299805 C23.29044128 144.81016281 22.12873413 144.79732758 20.93182373 144.78410339 C19.67041565 144.77671646 18.40900757 144.76932953 17.109375 144.76171875 C15.81686829 144.753647 14.52436157 144.74557526 13.19268799 144.73725891 C10.45219046 144.72223002 7.71171886 144.71239377 4.97119141 144.70483398 C1.46953903 144.69378776 -2.03147465 144.65941021 -5.53290176 144.61966228 C-8.88128349 144.58714278 -12.22959758 144.5827122 -15.578125 144.57421875 C-16.83143616 144.55671066 -18.08474731 144.53920258 -19.3760376 144.52116394 C-27.95996216 144.45974587 -27.95996216 144.45974587 -35 149 C-39.18715381 154.09674711 -39.58367026 157.80893983 -39.54589844 164.12646484 C-39.55629276 165.03910913 -39.56668709 165.95175343 -39.57739639 166.8920536 C-39.60642556 169.83187236 -39.60846291 172.77098986 -39.609375 175.7109375 C-39.62337674 177.53167151 -39.63915523 179.35239275 -39.65673828 181.1730957 C-39.70934415 187.90693008 -39.72760588 194.64099738 -39.75 201.375 C-39.8325 216.43125 -39.915 231.4875 -40 247 C-71.68 247 -103.36 247 -136 247 C-136.52393944 214.59188237 -136.52393944 214.59188237 -136.63476562 200.97070312 C-136.71179313 191.57921662 -136.80214498 182.18925049 -136.98071289 172.79907227 C-137.11072806 165.95879966 -137.19425688 159.11976451 -137.22315043 152.27829057 C-137.24003057 148.65853296 -137.27936635 145.04231356 -137.37449074 141.42369652 C-137.97594576 117.64379322 -137.97594576 117.64379322 -133.15313721 111.83288574 C-130.07281502 108.91145759 -126.73895838 106.97834988 -123 105 C-121.6991862 103.95871992 -120.41871454 102.8890367 -119.1953125 101.7578125 C-118.68266846 101.31864502 -118.17002441 100.87947754 -117.6418457 100.42700195 C-117.14128662 99.99734131 -116.64072754 99.56768066 -116.125 99.125 C-115.55676514 98.63797607 -114.98853027 98.15095215 -114.40307617 97.64916992 C-111.31532496 94.99945735 -108.23682695 92.33954367 -105.16796875 89.66796875 C-99.58515039 84.80858766 -94.00811136 79.9648574 -88.25 75.3125 C-83.58378869 71.53673434 -79.1694655 67.53647821 -74.75390625 63.47265625 C-71.16792716 60.25290481 -67.43298508 57.24094824 -63.68359375 54.21484375 C-61.05291443 52.04367173 -58.52057576 49.79758643 -56 47.5 C-52.68010514 44.47717579 -49.30235888 41.57487839 -45.8125 38.75 C-38.0463461 32.45843228 -30.55407118 25.85036308 -23.02685547 19.27685547 C-15.47499346 12.68419797 -7.91146209 6.16163283 0 0 Z " fill="#FEFEFE" transform="translate(256,168)"/>
<path d="M0 0 C1.07765625 -0.03996094 2.1553125 -0.07992187 3.265625 -0.12109375 C11.37581898 1.17908309 17.06245602 7.2804748 22.75 12.8125 C24.08203297 14.09250043 25.41536515 15.37115024 26.75 16.6484375 C27.40790527 17.27830566 28.06581055 17.90817383 28.74365234 18.55712891 C31.38747043 21.0349443 34.11445602 23.40815731 36.85253906 25.78076172 C39.66308643 28.23474711 42.39449725 30.77021928 45.125 33.3125 C49.7910272 37.63864026 54.49283241 41.9201688 59.23046875 46.16796875 C62.04258021 48.701049 64.83635581 51.253662 67.625 53.8125 C68.12491455 54.27116455 68.6248291 54.7298291 69.13989258 55.20239258 C71.72795411 57.57820238 74.31379955 59.95640411 76.8984375 62.3359375 C81.72591227 66.77630701 86.57326246 71.18213921 91.53515625 75.47265625 C95.20436832 78.72770682 98.78189086 82.08356347 102.35913086 85.43920898 C105.31791828 88.26300658 105.31791828 88.26300658 108.75 90.4375 C108.75 91.0975 108.75 91.7575 108.75 92.4375 C109.33104492 92.69635986 109.91208984 92.95521973 110.51074219 93.22192383 C112.92471152 94.53234176 114.59997121 95.98596882 116.578125 97.88671875 C117.65513672 98.91249023 117.65513672 98.91249023 118.75390625 99.95898438 C119.86572266 101.03116211 119.86572266 101.03116211 121 102.125 C125.88768005 106.80866498 130.80573432 111.41700696 135.92333984 115.84936523 C138.46964684 118.06317531 140.95462208 120.34046896 143.4375 122.625 C143.93733398 123.08422852 144.43716797 123.54345703 144.95214844 124.01660156 C147.68308547 126.52743828 150.40749625 129.04524947 153.12890625 131.56640625 C158.22472848 136.28546877 163.32483898 140.97973835 168.58203125 145.51953125 C172.14634516 148.67282518 175.62003871 151.92527767 179.09570312 155.17578125 C181.49555553 157.40901784 183.8601606 159.52170322 186.46875 161.515625 C190.96057523 165.29983393 193.27750064 170.50067208 194.203125 176.25390625 C194.48976184 183.61433091 192.79758032 188.78329232 188.1015625 194.4140625 C184.20284942 198.55112485 180.92756591 201.02902366 175.13671875 201.7734375 C167.35597828 201.88603866 162.33844971 200.72162889 156.5390625 195.4140625 C154.99468408 193.86968408 153.46886999 192.30654637 151.9609375 190.7265625 C149.40445198 188.0797418 146.69346946 185.70177679 143.90234375 183.30859375 C141.36947838 181.10670171 138.90667478 178.83554174 136.4375 176.5625 C132.81476095 173.25413086 129.13307109 170.07737642 125.3125 167 C120.7760327 163.34114231 116.491339 159.48881037 112.22851562 155.52148438 C109.01718772 152.5504881 105.72381211 149.73796168 102.3125 147 C97.53458662 143.15704521 93.06005016 139.06918671 88.58837891 134.88134766 C84.37917024 130.96165468 79.99256037 127.32483712 75.5078125 123.72265625 C71.37001026 120.29402408 67.45328893 116.63857087 63.51171875 112.98828125 C58.93829061 108.76416728 54.23329319 104.70317752 49.5 100.66015625 C48.29162052 99.62765817 47.0832885 98.59510454 45.875 97.5625 C45.2663208 97.04268555 44.6576416 96.52287109 44.03051758 95.98730469 C40.49337942 92.95831344 37.00590469 89.88585977 33.5625 86.75 C30.27057795 83.7583184 26.90408693 80.91225577 23.4375 78.125 C18.49260505 74.13672768 13.84063604 69.89960283 9.25268555 65.51049805 C6.27179696 62.69409806 3.35785489 60.3945283 -0.25 58.4375 C-9.93734359 66.67428542 -9.93734359 66.67428542 -19.4375 75.125 C-22.77227114 78.15462868 -26.18287639 81.04358092 -29.6875 83.875 C-34.461403 87.73575137 -38.98388428 91.81187075 -43.5 95.96875 C-47.06184229 99.16631296 -50.77565833 102.15138343 -54.5 105.15625 C-58.28905407 108.29944258 -61.88269352 111.63908595 -65.50390625 114.97265625 C-68.16875166 117.36457297 -70.89831825 119.63004884 -73.6875 121.875 C-78.22316443 125.53321015 -82.5070117 129.38492965 -86.76928711 133.35131836 C-90.85661006 137.13240558 -95.13043244 140.63439966 -99.46875 144.125 C-102.49019188 146.6372101 -105.37441773 149.26150827 -108.25 151.9375 C-112.83760113 156.20668152 -117.58442728 160.19508517 -122.46875 164.125 C-126.01822945 167.07625258 -129.38427314 170.19931071 -132.76074219 173.3449707 C-136.92703216 177.20237124 -141.29787713 180.75939999 -145.7265625 184.3125 C-148.09677646 186.30846965 -150.23264174 188.38949573 -152.375 190.625 C-157.87681105 196.29697015 -164.27828586 201.47561935 -172.4375 201.75 C-178.52572404 201.64145792 -182.81110312 199.73716851 -187.234375 195.56640625 C-192.08147577 190.26864529 -194.52907229 185.94428401 -194.625 178.625 C-194.65335938 177.64917969 -194.68171875 176.67335938 -194.7109375 175.66796875 C-193.5162701 167.29517262 -188.61474792 162.31348862 -182.5 156.875 C-181.82195312 156.25431641 -181.14390625 155.63363281 -180.4453125 154.99414062 C-176.38807232 151.29557282 -172.25384935 147.68638578 -168.11621094 144.07836914 C-165.4552342 141.73870082 -162.85257665 139.34205451 -160.25 136.9375 C-156.99389102 133.93709045 -153.72791467 130.95492853 -150.375 128.0625 C-145.94901266 124.22911347 -141.69203078 120.21638276 -137.41186523 116.22216797 C-133.53666855 112.61261189 -129.61839049 109.06613488 -125.60546875 105.609375 C-124.79756181 104.91089638 -124.00517746 104.19267746 -123.25 103.4375 C-123.14615542 100.82219751 -123.10638513 98.2324439 -123.1081543 95.61645508 C-123.10294266 94.38711243 -123.10294266 94.38711243 -123.09762573 93.13293457 C-123.09025419 91.34646603 -123.08491629 89.55998823 -123.08133507 87.77350807 C-123.07418756 84.94468835 -123.0585327 82.11604392 -123.03999329 79.28727722 C-122.98745221 71.24191743 -122.93956492 63.19665059 -122.92407227 55.15112305 C-122.91398332 50.23497777 -122.88463076 45.31926847 -122.84275246 40.40329552 C-122.83044549 38.52988676 -122.82532065 36.65641638 -122.82755089 34.78296852 C-122.82990721 32.15667992 -122.80771132 29.5316376 -122.7800293 26.90551758 C-122.78993141 25.74801247 -122.78993141 25.74801247 -122.80003357 24.56712341 C-122.7103998 19.37640155 -121.52603894 16.43665886 -118.25 12.4375 C-113.9858047 8.91175556 -111.06285943 7.92802275 -105.56640625 7.90625 C-104.30892578 7.90109375 -103.05144531 7.8959375 -101.75585938 7.890625 C-99.80389648 7.91382812 -99.80389648 7.91382812 -97.8125 7.9375 C-95.86633789 7.91429688 -95.86633789 7.91429688 -93.88085938 7.890625 C-81.57832953 7.94101939 -81.57832953 7.94101939 -76.25 12.4375 C-73.0289755 17.49322465 -72.78339461 21.75052792 -72.73828125 27.5546875 C-72.72033005 28.41184357 -72.70237885 29.26899963 -72.68388367 30.15213013 C-72.62998595 32.87220436 -72.59595142 35.5921052 -72.5625 38.3125 C-72.52930874 40.16408652 -72.49481741 42.01565022 -72.45898438 43.8671875 C-72.37427148 48.39049948 -72.3073628 52.91376186 -72.25 57.4375 C-71.35869385 56.61258057 -70.4673877 55.78766113 -69.54907227 54.93774414 C-68.36737538 53.84518767 -67.18565198 52.75265988 -66.00390625 51.66015625 C-65.12490662 50.84641541 -65.12490662 50.84641541 -64.22814941 50.01623535 C-60.6464459 46.70627331 -57.02013492 43.46071148 -53.33203125 40.26953125 C-50.11430666 37.43817509 -46.96867933 34.52852542 -43.81445312 31.62695312 C-39.8200024 27.95406824 -35.79604852 24.31572243 -31.75390625 20.6953125 C-29.98108925 19.09673493 -28.21909462 17.48611747 -26.46484375 15.8671875 C-9.45439425 0.19043211 -9.45439425 0.19043211 0 0 Z " fill="#FEFEFE" transform="translate(256.25,96.5625)"/>
</svg>
